<?xml version="1.0" standalone="no"?>
<!DOCTYPE svg PUBLIC "-//W3C//DTD SVG 20010904//EN"
 "http://www.w3.org/TR/2001/REC-SVG-20010904/DTD/svg10.dtd">
<svg version="1.0" xmlns="http://www.w3.org/2000/svg"
 width="5911.000000pt" height="5911.000000pt" viewBox="0 0 5911.000000 5911.000000"
 preserveAspectRatio="xMidYMid meet">
<metadata>
Created by potrace 1.11, written by Peter Selinger 2001-2013
</metadata>
<g transform="translate(0.000000,5911.000000) scale(0.100000,-0.100000)"
fill="#000000" stroke="none">
<path d="M41857 55774 c-1 -1 -54 -5 -117 -9 -63 -3 -126 -8 -140 -9 -14 -2
-56 -7 -93 -10 -37 -4 -76 -9 -85 -10 -9 -2 -39 -7 -65 -10 -27 -4 -57 -9 -67
-11 -9 -2 -35 -6 -56 -9 -56 -9 -182 -35 -229 -47 -22 -6 -48 -13 -57 -14
-105 -21 -416 -121 -586 -189 -232 -94 -405 -180 -637 -318 -130 -77 -388
-250 -421 -282 -6 -6 -26 -22 -44 -36 -158 -117 -436 -378 -586 -549 -22 -24
-47 -52 -56 -62 -25 -27 -199 -247 -236 -299 -188 -265 -387 -613 -477 -835
-16 -38 -32 -74 -35 -80 -4 -5 -12 -23 -18 -40 -6 -16 -20 -55 -32 -85 -41
-107 -133 -394 -144 -450 -3 -14 -10 -41 -16 -60 -5 -19 -21 -87 -34 -150 -22
-101 -31 -151 -41 -225 -2 -11 -6 -33 -8 -50 -3 -16 -9 -55 -12 -85 -3 -30 -8
-66 -10 -80 -4 -32 -16 -170 -20 -235 -9 -155 -3 -533 9 -644 3 -25 8 -71 11
-101 3 -30 7 -71 10 -90 3 -19 7 -55 10 -80 3 -25 7 -52 10 -60 2 -8 6 -33 10
-55 37 -252 152 -652 267 -930 79 -191 204 -440 306 -610 93 -156 308 -459
394 -556 13 -15 43 -51 68 -80 50 -61 359 -372 433 -437 289 -253 617 -472
972 -649 126 -63 374 -173 400 -177 10 -1 64 -21 100 -37 11 -4 63 -22 115
-38 283 -91 587 -156 860 -186 30 -4 71 -8 90 -11 152 -18 534 -23 725 -10
126 9 258 22 305 31 8 1 37 6 64 9 28 4 81 14 119 22 52 11 73 11 83 3 8 -6
14 -15 14 -18 0 -8 50 -96 305 -536 54 -93 109 -188 121 -211 12 -22 33 -58
46 -80 14 -21 28 -46 31 -54 4 -8 16 -29 26 -46 20 -32 195 -336 239 -414 14
-25 36 -62 49 -82 12 -21 23 -40 23 -44 0 -3 8 -18 18 -32 11 -15 33 -52 49
-82 17 -30 63 -111 103 -180 40 -69 81 -141 92 -160 11 -19 46 -80 78 -135 32
-55 67 -116 78 -135 52 -92 440 -766 487 -845 44 -76 120 -208 197 -342 23
-43 40 -72 128 -223 40 -69 84 -145 98 -170 13 -25 39 -70 57 -100 18 -30 42
-71 53 -90 25 -45 250 -436 273 -475 10 -16 24 -41 32 -55 7 -14 100 -176 207
-360 106 -184 204 -355 218 -380 14 -25 36 -62 49 -82 12 -21 23 -40 23 -42 0
-3 13 -26 29 -53 54 -88 201 -344 201 -348 0 -2 24 -44 53 -92 29 -48 133
-229 232 -401 99 -172 185 -320 190 -330 6 -9 23 -39 38 -67 15 -27 32 -57 37
-65 30 -45 360 -624 360 -631 0 -5 5 -9 10 -9 6 0 10 -4 10 -10 0 -5 41 -81
91 -167 101 -174 119 -205 150 -260 24 -42 375 -652 549 -953 62 -107 122
-211 133 -230 11 -19 33 -59 50 -88 16 -30 55 -97 86 -150 31 -54 60 -104 64
-112 4 -8 17 -31 28 -50 24 -40 197 -338 226 -390 11 -19 64 -111 118 -205 54
-93 165 -287 248 -430 142 -246 160 -279 206 -357 31 -55 92 -161 112 -195
146 -255 366 -456 635 -579 331 -151 732 -158 1064 -17 47 20 102 47 122 60
21 13 40 23 44 23 22 0 204 141 283 220 253 252 391 583 393 942 1 108 -6 193
-24 268 -5 25 -12 56 -14 69 -23 118 -130 349 -251 539 -18 29 -33 54 -33 56
0 2 -97 172 -216 377 -119 206 -230 399 -246 429 -17 30 -34 60 -38 65 -4 6
-19 30 -32 55 -14 25 -58 101 -98 170 -40 69 -90 154 -110 190 -20 36 -46 81
-57 100 -11 19 -46 80 -78 135 -32 55 -67 116 -78 135 -41 74 -142 249 -202
350 -34 58 -64 112 -68 120 -4 8 -17 31 -28 50 -39 65 -205 353 -459 795 -139
242 -268 465 -286 495 -18 30 -124 215 -236 410 -113 195 -271 471 -354 613
-207 360 -213 370 -224 392 -6 11 -18 34 -29 50 -18 30 -99 170 -326 565 -143
247 -155 269 -280 485 -54 94 -108 188 -120 210 -12 22 -41 70 -63 108 -23 37
-42 69 -42 71 0 1 -39 70 -86 152 -76 131 -287 497 -334 579 -10 17 -61 106
-115 200 -54 93 -103 179 -109 190 -6 11 -13 22 -16 25 -3 3 -12 19 -21 35 -8
17 -78 138 -154 270 -76 132 -149 260 -163 285 -14 25 -35 61 -47 80 -12 19
-33 55 -47 80 -14 25 -74 131 -135 235 -60 105 -142 246 -182 315 -40 69 -76
132 -81 140 -26 43 -170 293 -170 296 0 1 -44 78 -98 171 -54 92 -101 175
-105 183 -4 8 -16 29 -26 46 -11 18 -54 92 -97 165 -140 243 -227 394 -247
429 -10 19 -71 125 -135 235 -63 110 -116 202 -118 205 -1 3 20 30 47 60 43
47 228 266 263 310 290 373 532 816 692 1267 39 109 114 360 129 427 37 175
48 229 65 331 10 66 22 143 25 170 3 28 8 64 10 80 14 92 20 249 20 480 -1
306 -6 390 -41 645 -4 32 -26 156 -38 220 -86 455 -295 1013 -516 1377 -22 36
-40 67 -40 69 0 6 -160 253 -177 274 -7 8 -46 60 -87 115 -230 310 -609 691
-886 890 -30 22 -57 42 -60 46 -5 5 -198 136 -245 166 -329 205 -680 370
-1025 482 -106 34 -178 55 -225 67 -5 1 -48 12 -95 23 -147 37 -229 53 -390
76 -185 27 -193 28 -370 41 -77 6 -468 12 -473 8z m383 -2719 c333 -41 662
-181 925 -395 86 -70 225 -214 285 -295 25 -33 48 -61 53 -63 4 -2 7 -8 7 -12
0 -5 13 -28 29 -52 117 -175 225 -453 256 -658 3 -20 8 -47 11 -60 10 -41 13
-381 4 -445 -19 -139 -23 -159 -46 -247 -128 -498 -479 -929 -947 -1161 -101
-49 -331 -131 -401 -141 -21 -4 -42 -8 -45 -11 -4 -2 -32 -7 -62 -10 -30 -3
-72 -8 -94 -11 -108 -15 -302 -10 -465 11 -71 10 -237 53 -330 87 -110 40
-333 152 -368 186 -8 6 -23 17 -35 24 -87 45 -314 262 -413 393 -102 136 -157
232 -237 415 -54 123 -105 331 -122 498 -8 77 -9 261 -1 322 15 118 19 146 22
165 2 11 7 34 10 50 10 56 60 223 84 280 124 293 273 502 500 702 269 237 652
404 988 430 42 3 78 7 80 8 6 5 256 -3 312 -10z"/>
<path d="M16588 55665 c-2 -1 -52 -5 -113 -9 -60 -3 -119 -8 -130 -10 -11 -2
-51 -7 -88 -11 -37 -3 -76 -8 -85 -10 -9 -1 -52 -8 -95 -15 -301 -45 -633
-136 -942 -257 -170 -67 -459 -206 -615 -298 -707 -412 -1279 -1000 -1678
-1725 -50 -91 -148 -291 -177 -360 -15 -36 -35 -83 -46 -105 -39 -86 -112
-304 -184 -545 -11 -38 -36 -145 -49 -215 -3 -11 -9 -40 -15 -65 -14 -62 -48
-281 -56 -360 -4 -36 -9 -78 -11 -95 -17 -134 -23 -519 -11 -685 14 -192 21
-270 31 -330 3 -14 12 -72 21 -130 13 -87 30 -176 60 -312 24 -109 136 -483
153 -513 4 -5 7 -15 8 -20 5 -33 121 -296 200 -455 125 -249 240 -439 399
-655 49 -67 168 -218 185 -235 3 -3 41 -45 85 -95 169 -189 354 -362 592 -551
71 -57 247 -179 353 -246 429 -270 878 -460 1362 -577 174 -42 304 -65 543
-96 229 -30 681 -35 895 -10 19 2 64 7 100 10 36 4 76 8 90 10 39 5 113 17
135 21 10 2 37 6 60 9 22 3 47 8 55 10 8 2 29 7 45 9 17 3 80 17 140 31 469
108 908 286 1330 540 67 40 305 199 340 227 5 4 60 47 120 94 338 267 613 560
897 959 53 74 188 292 188 304 0 5 3 11 8 13 10 4 43 63 125 228 91 181 107
219 178 405 l57 150 6414 0 c3527 0 6433 4 6458 8 25 5 58 11 74 13 16 3 32 7
36 9 4 2 21 7 39 10 51 9 149 44 240 86 189 88 389 251 514 421 32 42 57 80
57 84 0 4 6 15 14 23 25 29 103 194 130 276 25 75 47 169 61 260 7 47 8 312 1
323 -3 5 -7 30 -10 56 -4 26 -15 80 -26 121 -105 392 -375 716 -740 887 -59
28 -189 77 -220 83 -3 1 -30 6 -60 13 -89 19 -111 22 -185 27 -55 4 -5531 11
-12036 15 l-697 0 -27 88 c-300 968 -914 1804 -1745 2376 -117 81 -164 111
-248 161 -45 27 -224 125 -302 166 -48 25 -184 87 -245 111 -27 11 -63 26 -80
34 -35 16 -204 77 -290 105 -260 85 -627 165 -840 184 -33 3 -71 7 -85 10 -64
13 -650 30 -662 20z m437 -2728 c11 -3 40 -8 65 -12 101 -16 293 -73 380 -112
310 -142 537 -317 725 -563 182 -237 292 -487 350 -800 21 -112 27 -381 12
-510 -13 -103 -44 -236 -83 -350 -232 -671 -813 -1136 -1509 -1207 -123 -13
-407 -6 -456 11 -8 3 -30 7 -49 10 -53 8 -230 56 -270 73 -19 8 -39 16 -45 17
-55 14 -251 115 -345 179 -220 149 -393 327 -529 544 -28 46 -51 85 -51 88 0
3 -10 22 -23 43 -27 43 -109 252 -131 332 -19 67 -45 192 -51 240 -14 117 -17
155 -17 250 0 96 3 142 18 255 8 55 32 174 45 211 5 17 11 40 13 50 2 10 15
46 27 79 13 33 24 62 24 65 12 48 101 215 171 320 194 292 449 502 804 663 40
18 202 73 240 81 14 3 45 10 70 16 124 28 233 38 410 35 102 -2 194 -5 205 -8z"/>
<path d="M13239 45496 c-2 -2 -24 -7 -49 -10 -270 -36 -546 -174 -744 -370
-101 -100 -155 -169 -231 -296 -21 -36 -118 -195 -215 -355 -97 -159 -226
-371 -286 -470 -60 -99 -132 -218 -160 -265 -29 -47 -87 -142 -128 -211 -42
-69 -100 -165 -131 -213 -30 -49 -55 -92 -55 -97 0 -5 -4 -9 -10 -9 -5 0 -10
-4 -10 -10 0 -5 -43 -80 -96 -167 -53 -87 -123 -201 -154 -253 -31 -52 -108
-178 -170 -280 -62 -102 -140 -230 -173 -285 -33 -55 -103 -170 -155 -255
-112 -183 -116 -190 -165 -272 -20 -34 -83 -137 -138 -228 -56 -91 -109 -178
-119 -195 -22 -38 -339 -557 -369 -605 -9 -14 -21 -34 -27 -45 -6 -11 -93
-155 -194 -320 -100 -165 -202 -331 -225 -370 -23 -38 -80 -133 -127 -210 -47
-77 -143 -234 -213 -350 -70 -115 -171 -281 -224 -368 -53 -86 -101 -165 -106
-175 -6 -9 -44 -72 -85 -140 -41 -68 -82 -135 -91 -150 -9 -15 -62 -101 -117
-192 -56 -91 -119 -194 -140 -230 -21 -36 -79 -130 -127 -210 -129 -211 -399
-655 -535 -880 -5 -8 -39 -64 -76 -124 -36 -59 -103 -170 -148 -245 -270 -447
-430 -709 -447 -733 -10 -15 -19 -29 -19 -32 0 -2 -41 -71 -91 -152 -51 -82
-100 -162 -109 -179 -26 -45 -129 -215 -155 -255 -27 -42 -240 -392 -265 -435
-9 -16 -81 -136 -160 -265 -79 -129 -181 -298 -228 -375 -47 -77 -87 -142 -89
-144 -2 -3 -38 3 -81 13 -42 10 -102 25 -132 32 -30 7 -82 18 -115 23 -33 6
-69 13 -80 15 -44 8 -121 19 -215 31 -30 4 -62 9 -70 10 -146 26 -802 27 -960
1 -14 -3 -52 -7 -85 -11 -151 -16 -356 -55 -560 -107 -1049 -266 -1989 -930
-2602 -1838 -225 -333 -421 -731 -544 -1106 -24 -71 -44 -133 -45 -139 -2 -5
-19 -69 -38 -141 -19 -72 -38 -146 -41 -165 -3 -19 -12 -61 -20 -94 -7 -33
-16 -78 -19 -100 -21 -135 -25 -164 -30 -200 -29 -225 -37 -346 -37 -595 0
-172 3 -238 16 -395 11 -115 38 -318 50 -377 4 -15 8 -40 10 -56 7 -54 76
-334 111 -451 197 -647 539 -1248 994 -1744 111 -121 302 -305 414 -398 16
-13 34 -29 40 -34 56 -53 463 -345 481 -345 2 0 40 -22 84 -50 180 -112 488
-260 727 -349 98 -37 311 -106 354 -116 8 -1 40 -10 71 -19 31 -9 65 -18 75
-20 11 -2 49 -11 85 -20 37 -8 80 -18 95 -21 96 -18 203 -37 224 -40 14 -1 63
-8 109 -15 88 -12 107 -14 266 -26 189 -14 592 -8 740 11 17 2 55 7 85 10 47
5 123 15 220 30 21 3 131 24 205 39 207 42 612 171 786 249 19 8 63 28 99 43
183 80 455 230 645 357 115 76 318 225 360 264 11 10 58 50 105 90 99 83 305
285 404 397 299 335 559 733 740 1133 47 105 165 400 170 428 2 5 15 48 30 95
23 72 58 192 71 250 38 162 67 293 71 325 2 22 9 63 14 90 5 28 12 77 15 110
4 33 8 67 10 75 2 8 7 53 10 100 3 47 8 105 10 130 5 58 6 476 1 555 -5 72
-15 187 -21 235 -3 19 -7 52 -10 73 -11 84 -23 163 -31 201 -2 11 -6 35 -9 51
-3 17 -19 91 -36 165 -124 538 -349 1052 -657 1505 -69 101 -188 263 -202 275
-3 3 -20 23 -37 46 l-32 41 130 214 c72 118 137 225 145 239 8 14 22 37 32 52
19 31 197 323 227 374 21 36 93 154 410 674 234 384 229 376 324 533 227 373
414 680 450 737 23 36 44 72 48 80 4 8 92 155 196 325 104 171 198 324 207
340 25 42 99 165 310 510 217 356 352 579 468 770 46 77 95 156 107 175 13 19
69 112 125 205 214 354 331 547 455 750 285 467 410 672 434 713 37 62 42 70
201 332 79 129 181 298 228 375 46 77 95 156 107 175 12 19 40 64 61 100 21
36 44 75 51 85 6 11 76 125 155 254 79 129 154 253 166 275 13 23 34 57 47 76
13 19 75 121 138 225 63 105 172 285 242 400 70 116 179 296 242 400 63 105
125 206 138 225 12 19 76 123 140 230 65 107 213 350 328 540 115 190 233 383
261 430 147 242 209 450 210 705 0 177 -8 248 -47 391 -43 156 -138 345 -236
469 -183 230 -492 428 -766 490 -5 1 -28 5 -50 10 -22 4 -49 10 -60 13 -24 6
-350 13 -356 8z m-8564 -13990 c33 -4 78 -9 99 -12 124 -15 348 -82 483 -146
369 -174 670 -468 848 -826 45 -91 118 -282 130 -340 2 -9 8 -37 14 -62 11
-48 30 -163 36 -220 7 -58 7 -292 0 -345 -35 -276 -103 -495 -217 -700 -48
-86 -124 -205 -138 -215 -3 -3 -13 -15 -22 -28 -34 -50 -148 -170 -228 -240
-174 -152 -443 -304 -630 -357 -8 -3 -46 -14 -85 -25 -38 -11 -86 -23 -105
-26 -19 -3 -41 -7 -48 -9 -57 -20 -422 -28 -532 -12 -46 6 -98 17 -215 42 -11
3 -51 14 -90 26 -623 193 -1097 721 -1229 1371 -37 181 -41 438 -10 625 12 76
67 277 95 348 246 640 843 1093 1514 1152 33 2 61 6 62 7 5 4 215 -2 268 -8z"/>
<path d="M29187 43174 c-1 -1 -110 -5 -242 -9 -132 -4 -265 -8 -295 -10 -30
-2 -104 -6 -165 -9 -60 -3 -135 -8 -165 -11 -30 -3 -82 -7 -115 -10 -117 -10
-190 -16 -225 -20 -19 -2 -64 -7 -100 -10 -36 -4 -76 -8 -90 -10 -14 -2 -70
-9 -125 -15 -129 -15 -143 -17 -185 -24 -19 -3 -53 -8 -75 -11 -22 -3 -67 -10
-100 -15 -33 -5 -78 -11 -100 -15 -22 -3 -53 -8 -70 -11 -16 -3 -39 -7 -50 -9
-20 -3 -121 -20 -180 -30 -16 -3 -100 -19 -185 -36 -85 -17 -166 -33 -180 -36
-223 -40 -831 -197 -1195 -308 -337 -102 -1025 -349 -1210 -435 -11 -5 -87
-38 -170 -73 -403 -173 -921 -428 -1270 -627 -22 -13 -60 -34 -85 -48 -25 -13
-49 -28 -55 -32 -5 -4 -30 -19 -55 -32 -199 -110 -717 -441 -965 -618 -369
-262 -860 -643 -1051 -815 -6 -5 -37 -32 -69 -60 -32 -27 -63 -55 -69 -61 -6
-5 -36 -32 -66 -59 -317 -279 -863 -828 -1135 -1139 -33 -38 -64 -74 -70 -80
-72 -79 -346 -409 -437 -526 -15 -19 -53 -69 -86 -110 -178 -228 -399 -538
-587 -825 -197 -300 -191 -290 -324 -515 -67 -113 -126 -212 -131 -220 -6 -8
-13 -22 -17 -30 -4 -8 -22 -42 -41 -75 -127 -224 -367 -691 -452 -880 -12 -27
-39 -86 -60 -130 -91 -193 -266 -613 -345 -830 -20 -55 -40 -109 -45 -120 -17
-37 -138 -389 -183 -535 -90 -285 -174 -576 -216 -745 -5 -22 -21 -85 -34
-140 -26 -101 -84 -352 -92 -396 -3 -13 -7 -35 -10 -49 -3 -14 -7 -36 -10 -50
-3 -14 -7 -36 -10 -50 -3 -14 -7 -35 -10 -48 -2 -13 -6 -31 -9 -40 -3 -9 -7
-33 -10 -52 -3 -19 -8 -46 -11 -60 -6 -32 -23 -125 -30 -170 -3 -19 -10 -58
-16 -86 -5 -28 -12 -66 -14 -85 -2 -19 -9 -65 -15 -104 -6 -38 -13 -86 -15
-105 -5 -36 -15 -102 -20 -132 -2 -9 -7 -48 -10 -85 -4 -37 -9 -77 -11 -88 -2
-11 -7 -45 -10 -75 -3 -30 -7 -65 -9 -77 -2 -12 -6 -57 -10 -100 -4 -43 -8
-89 -11 -103 -2 -14 -6 -63 -10 -110 -3 -47 -7 -101 -9 -120 -2 -19 -7 -82
-10 -140 -4 -58 -8 -134 -11 -170 -10 -162 -18 -464 -18 -675 1 -204 6 -264
29 -365 3 -14 8 -36 11 -49 3 -13 15 -54 28 -90 113 -320 349 -583 656 -729
77 -36 202 -79 256 -88 22 -3 42 -8 46 -10 15 -9 137 -18 243 -19 131 0 204 8
305 35 41 11 82 22 91 24 84 22 258 114 361 192 280 209 462 525 502 869 4 28
9 178 11 335 3 157 7 317 10 355 18 294 24 382 30 425 2 19 7 69 10 110 3 41
8 86 10 100 2 14 7 54 10 90 6 61 8 82 20 170 13 95 17 122 31 210 8 52 17
111 20 130 24 162 116 613 169 830 14 58 27 113 30 122 102 428 365 1202 545
1603 16 37 30 73 30 81 0 8 5 14 10 14 6 0 10 5 10 11 0 19 102 242 212 464
166 334 412 768 596 1050 36 55 81 125 101 155 55 85 236 344 315 450 72 98
276 361 286 370 3 3 21 25 40 50 19 25 37 47 40 50 3 3 44 50 90 105 46 55
109 129 141 165 32 36 67 76 78 89 127 146 526 552 716 726 59 55 116 107 124
115 9 8 82 71 161 140 80 69 147 127 150 130 35 38 443 353 652 503 140 100
515 352 600 402 10 5 78 47 152 93 75 45 138 82 142 82 3 0 18 8 32 19 90 63
668 363 887 461 28 12 77 35 110 50 33 15 89 40 125 55 36 15 83 35 105 45 22
10 96 41 165 68 69 27 134 53 145 57 11 4 25 9 30 11 6 2 69 25 140 52 128 48
480 166 645 216 98 29 338 97 360 101 8 2 35 8 60 15 25 7 52 14 60 15 8 2 64
15 125 30 149 36 484 107 560 119 38 6 203 35 230 40 11 2 47 7 80 12 33 4 62
8 65 9 3 1 30 5 60 9 30 5 62 10 70 11 8 2 49 6 90 10 41 4 77 8 80 10 3 2 37
6 75 9 39 4 84 9 100 11 29 4 117 13 200 20 22 2 85 6 140 10 55 3 123 8 150
10 100 7 365 17 580 20 121 2 231 6 245 9 14 3 45 9 69 12 96 13 258 70 369
130 147 79 318 224 404 344 18 25 35 47 38 50 6 5 34 51 76 127 60 106 121
298 139 435 11 90 6 325 -8 374 -3 10 -8 37 -12 58 -9 61 -60 206 -104 295
-158 321 -468 574 -806 660 -105 26 -126 30 -215 37 -69 5 -270 11 -273 8z"/>
<path d="M29187 38684 c-1 -1 -90 -5 -197 -8 -107 -4 -222 -8 -255 -11 -129
-9 -295 -24 -344 -30 -18 -3 -63 -8 -100 -10 -36 -3 -91 -10 -121 -15 -30 -5
-80 -12 -110 -15 -30 -3 -91 -12 -135 -20 -44 -7 -100 -16 -125 -20 -25 -3
-52 -8 -60 -10 -8 -2 -31 -7 -50 -10 -80 -13 -382 -77 -520 -110 -495 -120
-1088 -323 -1540 -527 -25 -11 -74 -34 -110 -50 -168 -76 -528 -262 -668 -345
-41 -24 -75 -43 -77 -43 -2 0 -74 -43 -161 -96 -623 -377 -1184 -817 -1708
-1339 -164 -164 -210 -212 -341 -356 -79 -86 -241 -276 -320 -374 -44 -55 -83
-102 -86 -105 -3 -3 -64 -84 -135 -180 -196 -262 -352 -497 -554 -830 -133
-220 -386 -715 -500 -980 -34 -80 -71 -164 -81 -187 -11 -23 -19 -45 -19 -48
0 -4 -6 -21 -14 -38 -154 -350 -391 -1153 -472 -1597 -2 -14 -7 -36 -9 -50
-20 -99 -33 -176 -55 -315 -6 -38 -13 -81 -15 -95 -8 -52 -27 -197 -31 -240
-2 -25 -6 -58 -8 -75 -3 -16 -8 -66 -11 -110 -4 -44 -9 -93 -11 -110 -2 -16
-6 -75 -9 -130 -3 -55 -8 -127 -11 -160 -13 -152 -13 -573 0 -660 42 -286 159
-520 360 -720 245 -244 539 -368 876 -369 140 -1 243 8 285 24 14 5 25 7 25 5
0 -2 11 0 25 5 14 5 36 12 49 14 45 8 182 67 261 113 316 181 545 492 615 833
23 114 28 182 35 450 5 203 8 265 20 390 10 122 29 286 42 365 3 22 7 49 9 60
66 499 253 1139 493 1682 101 230 366 730 393 741 5 2 8 8 8 13 0 19 249 391
337 504 13 17 27 35 31 40 16 23 242 302 264 326 13 14 52 59 88 100 87 99
373 386 485 486 488 441 1095 841 1665 1098 58 26 132 60 165 75 33 15 71 31
85 35 14 4 43 15 65 25 186 82 670 236 895 285 8 2 53 12 100 23 86 20 243 51
292 58 14 2 80 12 145 23 65 11 145 23 178 26 33 3 74 8 90 10 126 18 417 36
650 40 246 4 257 6 496 69 43 12 171 72 238 112 179 108 325 254 433 432 219
362 242 828 58 1205 -38 80 -70 137 -80 147 -3 3 -14 18 -24 35 -30 47 -139
170 -185 209 -14 12 -41 35 -60 52 -139 120 -369 223 -578 259 -72 12 -356 27
-366 19z"/>
<path d="M28995 33960 c-50 -4 -110 -10 -135 -14 -25 -3 -67 -8 -95 -12 -71
-8 -238 -34 -245 -39 -3 -2 -28 -6 -54 -10 -27 -3 -52 -7 -55 -10 -4 -2 -18
-6 -32 -8 -109 -21 -443 -116 -481 -137 -10 -6 -23 -10 -30 -10 -25 0 -299
-115 -463 -195 -367 -178 -732 -424 -1019 -685 -95 -86 -292 -285 -351 -355
-33 -38 -62 -72 -65 -75 -3 -3 -35 -41 -71 -85 -347 -425 -633 -969 -793
-1511 -33 -110 -87 -329 -100 -399 -26 -151 -43 -260 -51 -340 -4 -33 -8 -70
-10 -83 -24 -147 -24 -694 0 -857 2 -16 7 -57 10 -90 4 -33 8 -69 10 -80 2
-11 7 -42 10 -70 3 -27 8 -57 10 -65 2 -8 6 -31 9 -50 7 -49 44 -227 57 -275
6 -22 13 -48 15 -58 8 -43 88 -303 96 -311 4 -6 8 -16 8 -24 0 -14 92 -253
131 -339 100 -223 257 -504 387 -693 70 -101 186 -258 224 -302 13 -14 32 -37
42 -50 259 -319 668 -675 1046 -910 99 -61 127 -78 275 -159 112 -61 302 -149
424 -196 36 -14 80 -31 96 -38 72 -30 416 -136 485 -148 14 -3 52 -12 85 -20
33 -9 74 -18 90 -21 17 -2 68 -11 115 -20 105 -18 145 -24 212 -32 29 -3 64
-7 78 -10 160 -25 829 -25 957 0 12 3 53 8 90 11 37 4 70 9 73 10 3 2 30 6 60
10 30 4 57 8 60 10 3 2 26 6 50 10 25 4 81 15 125 25 45 10 92 21 105 23 107
20 394 112 588 189 396 157 830 411 1144 670 173 143 183 153 353 323 280 281
504 574 701 916 65 114 214 409 214 424 0 3 10 27 21 53 38 85 47 106 79 197
30 85 76 222 85 255 15 51 66 248 69 265 2 11 12 56 21 100 24 116 24 116 30
160 3 22 8 51 11 65 6 34 22 152 28 220 27 271 27 663 1 895 -18 162 -21 182
-51 350 -227 1265 -1017 2383 -2139 3030 -103 59 -375 196 -455 229 -235 95
-516 193 -609 211 -9 2 -43 10 -76 18 -33 9 -71 18 -85 21 -14 2 -56 11 -95
19 -38 9 -88 18 -110 21 -22 4 -47 8 -55 11 -8 2 -40 6 -70 9 -30 3 -65 8 -77
10 -12 3 -53 8 -90 12 -37 4 -81 9 -98 11 -58 8 -631 10 -720 3z m495 -2534
c47 -3 99 -8 115 -12 17 -3 39 -7 50 -8 203 -28 479 -133 678 -258 180 -113
366 -280 483 -434 32 -44 62 -80 67 -82 4 -2 7 -7 7 -12 0 -5 16 -32 35 -62
35 -52 113 -202 147 -283 48 -113 103 -319 124 -465 12 -89 12 -375 -2 -478
-18 -141 -67 -341 -104 -427 -5 -11 -21 -49 -36 -85 -52 -120 -185 -347 -237
-402 -6 -7 -28 -33 -48 -58 -47 -58 -146 -158 -231 -231 -57 -49 -118 -92
-263 -187 -84 -54 -385 -179 -473 -197 -9 -1 -51 -10 -92 -18 -41 -9 -97 -19
-125 -22 -27 -3 -66 -8 -85 -11 -38 -6 -286 -6 -335 0 -44 5 -117 15 -141 20
-12 2 -38 7 -59 10 -20 4 -41 8 -45 11 -3 2 -20 6 -36 9 -35 6 -193 58 -249
81 -434 180 -781 506 -983 925 -126 261 -182 497 -186 785 -7 440 136 850 419
1205 68 85 182 199 270 269 39 31 72 58 75 61 15 15 71 50 80 50 5 0 10 5 10
10 0 6 5 10 11 10 6 0 29 13 52 28 106 71 304 156 464 198 109 29 109 29 228
49 17 3 66 8 110 11 44 4 81 7 82 8 3 3 144 -2 223 -8z"/>
<path d="M54427 33914 c-1 -1 -56 -5 -122 -8 -66 -4 -133 -9 -150 -11 -64 -9
-132 -16 -180 -21 -27 -3 -57 -7 -65 -9 -8 -3 -33 -7 -55 -10 -22 -4 -47 -8
-55 -10 -8 -2 -31 -7 -50 -10 -429 -68 -1017 -293 -1450 -553 -163 -98 -438
-286 -470 -322 -3 -3 -23 -18 -45 -35 -22 -16 -45 -34 -51 -40 -6 -5 -40 -35
-75 -65 -640 -549 -1132 -1311 -1373 -2130 -27 -91 -61 -219 -70 -260 -42
-197 -56 -270 -61 -313 -3 -29 -8 -59 -10 -67 -2 -8 -7 -40 -10 -70 -3 -30 -8
-71 -10 -90 -18 -151 -26 -297 -26 -470 -1 -133 9 -371 16 -420 2 -14 7 -56
10 -95 3 -38 8 -77 10 -85 2 -8 7 -40 10 -70 3 -30 8 -62 10 -70 2 -8 7 -31
10 -50 3 -19 13 -69 21 -110 9 -41 18 -86 20 -100 3 -14 20 -83 40 -155 159
-592 409 -1098 796 -1611 l99 -132 -63 -101 c-35 -56 -71 -116 -82 -134 -10
-18 -69 -115 -131 -217 -62 -102 -201 -331 -310 -510 -108 -179 -208 -342
-221 -362 -13 -21 -24 -42 -24 -47 0 -5 -3 -11 -8 -13 -4 -1 -37 -52 -73 -113
-36 -60 -124 -204 -194 -320 -70 -115 -179 -293 -240 -395 -62 -102 -162 -266
-222 -365 -60 -99 -170 -279 -243 -400 -73 -121 -148 -243 -166 -272 -19 -28
-34 -54 -34 -58 0 -3 -13 -25 -28 -48 -16 -23 -51 -78 -77 -122 -27 -44 -118
-195 -203 -335 -85 -140 -199 -327 -252 -415 -53 -88 -141 -232 -195 -320 -54
-88 -106 -174 -116 -192 -10 -17 -30 -51 -46 -75 -15 -24 -33 -52 -39 -63 -6
-11 -73 -121 -149 -245 -75 -124 -148 -243 -160 -265 -31 -53 -222 -367 -232
-380 -4 -6 -17 -26 -27 -45 -11 -19 -34 -57 -51 -85 -18 -27 -65 -105 -106
-172 -41 -68 -87 -144 -103 -170 -16 -27 -38 -64 -50 -84 -37 -64 -268 -443
-291 -479 -13 -19 -131 -213 -263 -430 -132 -217 -270 -446 -308 -508 -38 -62
-74 -120 -79 -130 -6 -9 -44 -72 -85 -140 -99 -163 -87 -144 -231 -380 -69
-114 -197 -324 -284 -467 -87 -143 -202 -332 -255 -420 -54 -88 -186 -306
-295 -485 -193 -316 -263 -431 -354 -582 -24 -40 -106 -175 -182 -299 -76
-125 -156 -262 -178 -307 -35 -69 -86 -204 -96 -252 -2 -8 -8 -35 -14 -60 -34
-148 -34 -374 -2 -534 58 -282 174 -500 371 -696 160 -160 321 -260 528 -329
98 -33 111 -36 237 -56 79 -13 353 -13 405 -1 14 4 41 9 60 12 88 13 242 66
345 117 57 29 184 105 195 117 3 3 28 23 55 45 78 62 169 157 228 237 45 62
210 325 275 438 11 19 93 154 182 300 90 146 171 279 180 295 9 17 105 174
212 350 107 176 207 340 222 365 15 25 62 102 104 171 42 69 138 227 212 350
74 123 137 226 141 229 3 3 9 12 13 20 4 8 12 24 19 35 31 53 204 336 231 380
17 28 36 59 43 70 6 11 45 74 85 140 40 65 78 127 83 137 8 14 158 260 242
397 12 20 28 46 35 59 7 12 49 82 94 155 115 187 363 596 384 632 10 17 80
131 155 255 76 124 145 236 152 250 8 14 33 55 56 93 23 37 83 136 134 220 51
83 151 249 224 367 72 118 140 230 150 248 22 38 42 71 74 122 13 19 61 98
107 175 47 77 130 214 185 305 56 91 109 179 119 197 11 17 42 69 70 115 64
104 320 525 389 638 28 47 98 162 155 255 57 94 122 202 145 240 23 39 79 131
125 205 45 74 90 149 100 165 10 17 55 91 100 165 45 74 90 147 99 162 9 15
47 78 84 140 38 62 86 142 109 178 22 36 85 139 140 230 129 213 235 388 382
630 66 107 163 267 216 355 54 88 155 255 225 370 71 116 134 222 142 236 26
51 34 53 130 29 48 -12 99 -24 113 -26 14 -3 57 -11 95 -19 92 -19 121 -24
175 -31 25 -3 52 -7 60 -9 8 -3 44 -7 80 -11 36 -3 67 -7 70 -9 43 -26 826
-26 967 -1 10 2 45 7 78 10 71 9 121 16 155 22 14 2 41 7 60 10 68 11 236 46
310 66 41 11 84 21 95 24 91 18 441 141 585 204 183 80 318 149 495 250 178
101 425 273 593 412 85 70 246 212 276 244 6 7 52 54 101 105 371 385 639 781
875 1294 37 80 133 326 155 395 9 30 19 62 22 70 3 8 7 20 9 25 1 6 17 57 34
115 41 139 96 386 117 525 2 17 6 41 9 55 41 241 58 643 40 945 -4 66 -9 131
-11 145 -2 14 -9 69 -15 124 -7 54 -13 108 -16 119 -2 12 -6 37 -9 57 -3 20
-8 47 -10 60 -3 14 -11 59 -19 100 -91 470 -299 1002 -564 1435 -59 98 -163
257 -172 265 -3 3 -27 34 -52 70 -26 36 -51 70 -55 75 -496 640 -1146 1132
-1893 1432 -138 56 -332 124 -425 149 -128 34 -201 53 -225 58 -14 3 -55 12
-91 20 -91 21 -157 33 -284 51 -22 4 -51 8 -65 10 -73 12 -203 25 -300 31 -85
6 -458 12 -463 8z m468 -2728 c50 -9 108 -22 130 -27 22 -6 50 -13 62 -15 25
-5 149 -48 203 -71 539 -229 933 -698 1065 -1268 10 -41 27 -140 32 -190 14
-121 8 -389 -11 -481 -2 -12 -7 -39 -10 -60 -28 -171 -140 -451 -251 -621
-109 -166 -259 -333 -391 -433 -32 -25 -61 -47 -64 -50 -17 -17 -164 -107
-234 -144 -116 -61 -340 -145 -393 -148 -5 0 -18 -4 -29 -9 -12 -4 -39 -10
-61 -14 -21 -3 -50 -8 -63 -10 -90 -19 -319 -24 -454 -12 -280 27 -570 133
-821 302 -120 81 -144 100 -253 207 -241 234 -426 568 -496 893 -33 154 -49
419 -32 540 3 22 8 65 12 95 3 30 7 57 9 60 2 3 6 25 10 48 17 119 113 375
188 509 155 274 383 509 644 667 160 96 405 191 568 220 17 3 41 8 55 11 14 3
54 8 90 11 36 4 67 8 69 10 11 10 349 -6 426 -20z"/>
<path d="M41588 30835 c-2 -1 -29 -5 -61 -9 -135 -14 -337 -81 -461 -154 -283
-165 -493 -430 -584 -737 -47 -158 -50 -186 -57 -548 -5 -267 -10 -383 -19
-522 -9 -128 -16 -220 -20 -265 -13 -141 -17 -189 -22 -220 -3 -19 -7 -57 -9
-85 -3 -27 -7 -66 -10 -85 -2 -19 -7 -53 -10 -75 -10 -83 -25 -186 -40 -282
-9 -54 -18 -111 -21 -128 -2 -16 -12 -68 -20 -115 -9 -47 -18 -96 -20 -110 -2
-14 -7 -36 -10 -50 -7 -29 -10 -46 -23 -115 -9 -43 -47 -219 -71 -325 -39
-170 -158 -598 -215 -775 -15 -44 -28 -87 -30 -95 -7 -28 -123 -359 -130 -370
-3 -5 -8 -18 -10 -27 -5 -26 -102 -273 -180 -458 -327 -779 -814 -1638 -1293
-2276 -39 -52 -86 -114 -104 -139 -37 -50 -269 -342 -277 -350 -10 -9 -65 -74
-96 -114 -16 -22 -39 -48 -51 -60 -11 -12 -49 -55 -85 -96 -35 -41 -69 -79
-75 -85 -6 -5 -60 -64 -120 -130 -136 -149 -447 -459 -585 -584 -57 -52 -109
-100 -114 -105 -33 -36 -333 -293 -420 -361 -21 -16 -43 -35 -49 -40 -6 -6
-31 -26 -56 -45 -25 -19 -47 -37 -50 -40 -11 -14 -342 -260 -445 -333 -60 -42
-114 -80 -120 -85 -8 -7 -216 -144 -375 -247 -130 -85 -450 -273 -590 -347
-41 -22 -94 -51 -118 -65 -89 -50 -643 -323 -657 -323 -2 0 -32 -13 -67 -29
-35 -16 -92 -41 -128 -56 -36 -15 -83 -35 -105 -45 -101 -44 -457 -180 -640
-243 -282 -99 -864 -268 -1040 -303 -10 -2 -89 -19 -175 -38 -85 -19 -168 -37
-185 -40 -43 -7 -88 -16 -105 -21 -8 -2 -28 -6 -45 -9 -16 -3 -84 -14 -150
-26 -66 -11 -136 -23 -155 -26 -19 -3 -60 -9 -90 -14 -30 -5 -75 -11 -100 -14
-25 -4 -54 -8 -65 -10 -17 -3 -97 -13 -175 -21 -14 -2 -43 -5 -65 -8 -22 -4
-71 -9 -110 -12 -38 -4 -81 -8 -95 -10 -14 -2 -61 -7 -105 -10 -44 -3 -114 -8
-155 -11 -122 -11 -418 -22 -730 -29 -206 -4 -254 -9 -380 -42 -551 -141 -942
-646 -943 -1218 -1 -179 32 -345 100 -505 120 -281 338 -510 608 -643 64 -31
210 -85 210 -77 0 2 9 -2 21 -8 11 -6 43 -14 70 -18 27 -3 52 -8 55 -10 10 -6
177 -17 259 -17 98 0 584 14 633 18 21 1 97 6 170 10 167 10 187 11 272 19 39
3 99 9 135 12 36 3 76 7 90 9 14 2 78 9 143 15 66 6 127 13 136 15 10 2 42 6
72 10 82 9 125 15 229 30 52 8 113 17 135 19 22 3 51 8 65 11 14 3 43 7 65 10
22 3 63 9 90 15 28 5 66 12 85 15 66 11 85 14 190 36 58 11 119 23 135 26 64
10 361 77 574 129 454 112 1021 287 1437 442 163 61 474 183 529 208 17 7 107
46 200 87 280 122 309 136 605 284 302 151 399 202 600 315 69 39 145 82 170
96 25 14 115 68 200 120 85 52 164 100 175 106 47 26 529 343 560 369 6 4 93
67 195 140 102 73 226 164 275 202 121 93 429 337 435 344 3 4 17 16 32 27 57
44 321 273 437 379 172 158 223 206 320 299 203 198 426 427 581 597 52 57
102 111 110 119 37 36 307 354 456 535 247 302 555 724 796 1092 165 251 187
286 195 303 4 8 29 51 57 95 68 110 194 325 240 410 21 39 55 99 75 135 110
197 346 669 455 910 299 661 553 1368 737 2050 28 102 52 192 54 200 2 8 11
44 20 80 8 36 17 72 19 80 28 112 111 490 130 592 13 73 66 368 71 396 3 17 7
47 10 65 12 68 14 84 21 132 3 28 8 59 10 69 5 25 28 205 39 296 14 120 17
148 20 170 2 14 7 59 10 100 3 41 8 86 10 100 2 14 7 61 10 105 4 44 8 96 10
115 1 19 6 87 10 150 4 63 8 133 10 155 7 92 18 434 19 625 2 269 -14 396 -70
551 -182 506 -634 833 -1166 844 -75 2 -138 2 -140 0z"/>
<path d="M37000 30815 c-485 -79 -867 -404 -1021 -870 -7 -22 -14 -42 -14 -45
-1 -3 -5 -23 -9 -45 -4 -22 -10 -49 -12 -60 -2 -11 -6 -31 -9 -45 -5 -25 -9
-100 -20 -444 -3 -98 -8 -197 -10 -220 -2 -22 -7 -72 -10 -111 -12 -132 -19
-203 -30 -275 -2 -14 -11 -77 -20 -140 -9 -63 -25 -158 -35 -210 -10 -52 -21
-108 -24 -125 -14 -75 -82 -353 -113 -455 -14 -47 -28 -98 -33 -115 -20 -79
-140 -418 -201 -567 -93 -227 -227 -511 -323 -683 -58 -103 -151 -262 -184
-315 -55 -86 -178 -272 -204 -307 -13 -17 -30 -41 -38 -53 -26 -39 -142 -194
-169 -226 -14 -17 -33 -40 -41 -50 -57 -72 -99 -123 -122 -149 -14 -16 -36
-41 -48 -55 -128 -151 -399 -428 -545 -560 -270 -242 -494 -417 -778 -606 -95
-63 -177 -119 -184 -124 -7 -6 -16 -10 -21 -10 -5 0 -20 -8 -33 -18 -13 -11
-44 -30 -69 -44 -25 -14 -61 -35 -80 -46 -97 -57 -162 -91 -355 -186 -236
-117 -258 -127 -405 -186 -58 -23 -114 -46 -125 -51 -23 -11 -293 -109 -315
-114 -8 -3 -82 -25 -165 -50 -82 -26 -158 -48 -167 -51 -10 -2 -26 -6 -35 -8
-154 -38 -283 -69 -303 -72 -14 -3 -41 -9 -60 -14 -19 -5 -51 -11 -70 -14 -19
-3 -45 -8 -56 -10 -12 -2 -37 -7 -55 -10 -19 -3 -45 -8 -59 -11 -13 -2 -42 -7
-65 -10 -22 -4 -51 -8 -65 -10 -30 -5 -65 -9 -280 -35 -72 -8 -155 -15 -320
-25 -42 -3 -173 -7 -293 -9 -119 -3 -220 -7 -224 -9 -5 -3 -31 -7 -59 -11 -52
-6 -194 -44 -249 -67 -16 -7 -32 -13 -35 -13 -3 -1 -42 -20 -88 -44 -345 -175
-611 -538 -667 -909 -3 -21 -8 -50 -10 -63 -3 -14 -5 -83 -5 -154 0 -111 4
-161 24 -261 103 -521 549 -933 1081 -1000 52 -6 464 -7 570 0 279 16 340 21
440 30 98 10 239 25 275 30 14 2 48 6 75 10 78 9 107 13 150 20 74 11 220 36
245 41 14 3 39 7 55 10 17 3 64 11 105 20 103 20 109 21 160 33 25 5 59 12 75
15 17 3 111 26 210 51 99 25 191 48 205 50 14 3 36 10 50 15 14 5 75 23 135
40 217 62 666 218 820 285 17 8 85 36 152 64 264 109 682 317 953 473 91 52
176 101 190 109 14 8 27 16 30 19 3 3 14 10 25 17 89 54 125 77 235 149 159
104 280 188 400 277 97 72 311 237 320 247 3 3 28 24 57 46 152 119 412 352
609 545 176 173 315 320 514 545 312 352 751 963 970 1349 10 17 42 73 72 125
30 52 58 102 61 110 4 8 19 35 33 60 62 108 259 511 337 690 70 162 213 519
222 555 1 6 5 17 8 25 60 144 257 815 282 959 3 19 8 37 10 41 2 3 6 17 9 31
3 13 12 56 20 94 8 39 17 84 20 100 7 36 12 61 20 95 6 25 8 39 26 145 5 33
12 71 15 85 8 46 54 364 60 420 3 30 8 71 10 90 11 95 22 220 31 340 3 47 7
108 10 135 9 117 12 635 4 685 -4 30 -11 73 -15 95 -12 68 -66 226 -105 306
-180 366 -507 609 -935 694 -60 12 -321 12 -395 0z"/>
<path d="M8447 23934 c-1 -1 -29 -4 -62 -8 -177 -18 -357 -76 -507 -162 -149
-86 -269 -179 -353 -274 -22 -24 -48 -54 -58 -65 -37 -40 -109 -156 -151 -242
-96 -195 -138 -380 -137 -603 0 -107 3 -129 37 -310 22 -115 92 -268 240 -527
76 -131 145 -251 154 -268 26 -46 459 -796 525 -910 32 -55 63 -109 69 -120 6
-11 81 -141 166 -288 85 -147 164 -285 176 -305 11 -20 63 -111 116 -202 325
-564 518 -900 536 -930 11 -19 29 -51 40 -70 11 -19 60 -105 109 -190 49 -85
143 -247 208 -360 65 -113 176 -306 248 -430 71 -124 140 -243 152 -265 47
-83 466 -811 475 -825 10 -17 272 -471 311 -539 36 -63 490 -848 509 -881 5
-8 34 -58 63 -110 30 -52 77 -135 106 -183 28 -49 51 -90 51 -91 0 -2 32 -56
70 -120 39 -65 70 -119 70 -121 0 -3 29 -53 64 -112 35 -60 142 -245 238 -413
96 -168 235 -408 308 -535 73 -126 183 -318 245 -425 62 -107 138 -240 170
-295 32 -55 69 -120 83 -145 14 -25 79 -137 144 -248 65 -112 118 -205 118
-207 0 -2 34 -60 75 -130 41 -69 75 -131 75 -136 0 -5 5 -9 10 -9 6 0 10 -5
10 -11 0 -6 23 -49 51 -97 29 -48 63 -107 77 -132 14 -25 83 -146 155 -270
143 -248 150 -260 196 -342 l32 -56 -54 -59 c-47 -50 -162 -182 -216 -248
-102 -125 -371 -517 -371 -542 0 -2 -9 -17 -19 -32 -24 -33 -187 -353 -225
-441 -113 -260 -240 -657 -272 -850 -3 -19 -8 -38 -9 -41 -4 -6 -41 -216 -50
-284 -20 -145 -25 -196 -32 -302 -4 -65 -7 -208 -7 -318 -1 -259 11 -448 39
-616 2 -13 6 -46 10 -74 29 -233 178 -785 256 -949 11 -22 19 -43 19 -48 0 -4
14 -37 30 -73 17 -36 30 -68 30 -71 0 -12 153 -310 210 -410 143 -248 353
-539 545 -754 47 -54 302 -308 365 -366 98 -89 333 -270 470 -364 218 -147
438 -271 670 -378 109 -50 434 -175 485 -186 6 -2 37 -11 70 -21 33 -10 65
-20 70 -21 6 -1 45 -12 87 -24 43 -11 85 -23 95 -25 195 -41 256 -54 296 -60
27 -3 57 -8 66 -10 10 -2 40 -6 67 -9 27 -4 85 -11 129 -16 251 -32 711 -32
970 0 44 5 100 12 125 15 25 3 56 7 70 9 14 3 43 7 65 11 22 3 74 12 115 21
41 9 84 17 95 20 115 22 371 94 517 143 231 80 609 252 755 344 24 15 45 27
47 27 3 0 38 21 78 46 465 294 805 594 1157 1019 316 382 637 974 772 1425 11
36 24 74 29 85 4 11 11 31 14 45 4 14 20 77 37 140 54 208 100 457 114 622 3
37 7 75 9 85 22 115 23 632 1 833 -2 19 -6 61 -10 92 -13 120 -41 293 -67 413
-10 50 -21 98 -23 109 -49 226 -179 604 -285 831 -78 168 -181 366 -205 395
-6 8 -15 23 -18 32 -11 30 -193 302 -279 415 -195 258 -407 485 -658 704 -71
62 -240 197 -286 229 -405 278 -648 411 -1019 558 -94 37 -355 126 -400 137
-11 2 -54 13 -95 25 -41 11 -88 22 -105 25 -16 3 -47 10 -68 16 -39 10 -176
36 -232 44 -16 3 -48 7 -70 11 -49 8 -72 11 -155 19 -36 4 -72 8 -80 10 -59
16 -535 24 -705 11 -55 -4 -127 -9 -160 -11 -33 -2 -71 -7 -85 -9 -14 -3 -50
-8 -80 -11 -30 -4 -93 -14 -140 -24 -111 -22 -118 -21 -138 14 -9 16 -35 61
-58 100 -23 38 -77 132 -120 208 -43 76 -86 150 -95 165 -9 15 -28 50 -44 77
-15 28 -51 91 -80 140 -29 50 -62 106 -73 125 -10 19 -146 256 -302 525 -155
270 -294 510 -307 535 -30 53 -110 192 -190 328 -32 53 -58 99 -58 102 0 3 -8
16 -17 30 -13 21 -109 186 -190 330 -11 19 -62 107 -113 195 -149 259 -207
358 -228 395 -25 45 -125 220 -137 240 -5 8 -55 95 -112 194 -57 98 -110 190
-118 205 -9 14 -44 76 -78 136 -35 61 -67 117 -72 125 -40 65 -130 223 -130
227 0 3 -8 17 -19 31 -10 15 -31 50 -46 77 -15 28 -60 107 -101 177 -41 69
-74 129 -74 131 0 2 -29 53 -65 112 -36 59 -65 108 -65 111 0 2 -46 83 -103
181 -57 98 -115 198 -129 223 -22 40 -268 467 -588 1020 -62 107 -121 210
-131 228 -11 18 -38 66 -61 105 -22 40 -51 89 -62 109 -12 20 -45 77 -73 127
-29 50 -53 95 -53 101 0 5 -4 10 -10 10 -5 0 -10 4 -10 8 0 8 -293 523 -320
562 -6 8 -13 22 -17 30 -4 8 -16 31 -28 50 -12 19 -33 55 -47 80 -34 61 -397
691 -437 758 -17 29 -31 55 -31 58 0 2 -11 21 -23 42 -13 20 -68 114 -122 207
-54 94 -141 244 -193 335 -52 91 -106 185 -120 209 -14 25 -38 68 -55 95 -16
28 -38 65 -47 82 -10 16 -52 90 -94 162 -42 72 -76 134 -76 137 0 3 -8 18 -19
33 -16 23 -194 330 -278 479 -175 310 -329 570 -379 636 -128 171 -289 303
-479 396 -167 82 -251 108 -445 137 -39 5 -248 12 -253 8z m8630 -14298 c248
-24 498 -106 718 -234 44 -25 85 -50 90 -54 6 -5 46 -35 90 -67 321 -236 567
-615 664 -1023 33 -141 45 -247 45 -403 -1 -173 -14 -274 -59 -465 -42 -178
-190 -471 -320 -635 -285 -358 -659 -582 -1125 -670 -103 -20 -367 -26 -485
-12 -359 43 -684 185 -960 417 -288 243 -491 571 -583 945 -35 137 -46 245
-47 420 0 177 11 268 50 425 183 736 824 1291 1565 1356 41 4 76 7 77 8 5 4
222 -2 280 -8z"/>
<path d="M41788 12335 c-2 -1 -57 -6 -123 -9 -66 -4 -133 -9 -150 -11 -16 -2
-70 -9 -120 -15 -49 -6 -103 -13 -120 -16 -16 -3 -39 -7 -50 -9 -202 -31 -442
-91 -670 -166 -82 -27 -159 -54 -170 -59 -11 -5 -71 -30 -134 -55 -62 -26
-121 -50 -130 -55 -9 -5 -61 -30 -116 -56 -88 -43 -160 -81 -350 -189 -164
-92 -447 -296 -627 -452 -189 -162 -446 -429 -584 -608 -205 -265 -345 -487
-484 -765 -43 -85 -84 -171 -93 -190 -8 -19 -26 -62 -40 -95 -43 -101 -104
-268 -142 -389 -19 -64 -39 -116 -43 -116 -4 -1 -2842 -3 -6307 -5 -3465 -2
-6345 -7 -6400 -10 -81 -4 -214 -29 -325 -59 -28 -8 -116 -44 -185 -77 -230
-108 -461 -331 -594 -571 -77 -141 -142 -349 -157 -508 -5 -61 -5 -233 1 -285
65 -554 463 -1019 990 -1160 169 -45 -150 -44 6642 -40 l6411 4 7 -27 c8 -31
83 -227 114 -296 12 -25 31 -67 42 -93 64 -144 238 -470 282 -527 4 -6 33 -49
64 -96 312 -476 782 -940 1278 -1262 198 -128 507 -295 660 -356 28 -11 68
-28 90 -38 22 -10 45 -19 50 -20 6 -1 45 -16 87 -33 84 -33 327 -111 423 -136
73 -19 234 -57 255 -60 8 -1 40 -7 70 -13 71 -15 105 -21 160 -27 25 -3 54 -8
65 -10 11 -2 49 -7 85 -10 36 -4 76 -9 90 -11 142 -24 745 -24 902 1 13 2 50
7 83 11 98 12 165 21 200 28 11 2 40 7 65 11 37 6 224 46 280 60 485 121 971
336 1395 618 79 52 311 222 325 237 3 3 46 39 95 80 179 148 475 459 649 680
83 107 221 313 315 473 76 129 251 473 251 494 0 5 8 27 19 49 96 200 247 717
285 979 4 23 8 52 11 65 3 14 10 63 15 110 6 47 13 99 15 115 20 138 27 674
12 845 -8 87 -28 248 -42 335 -3 17 -7 41 -9 55 -4 23 -14 81 -21 120 -2 8
-13 58 -25 110 -12 52 -24 105 -26 118 -11 57 -108 363 -150 475 -92 242 -217
500 -349 722 -62 104 -109 179 -116 185 -3 3 -33 46 -68 97 -34 50 -112 154
-173 230 -329 409 -720 751 -1171 1024 -131 80 -398 221 -492 261 -287 121
-470 185 -685 242 -99 26 -267 65 -310 71 -14 2 -63 11 -110 19 -46 9 -108 18
-138 22 -29 3 -62 7 -73 9 -11 2 -52 7 -92 10 -39 3 -92 8 -117 11 -51 5 -497
14 -502 9z m382 -2715 c145 -21 151 -22 257 -49 310 -80 610 -255 833 -487 87
-90 190 -221 226 -284 10 -19 24 -42 30 -50 7 -8 32 -55 57 -105 138 -272 197
-530 191 -840 -1 -82 -4 -159 -7 -170 -2 -11 -8 -42 -11 -70 -4 -27 -16 -87
-27 -131 -106 -446 -373 -834 -745 -1082 -125 -83 -148 -96 -254 -144 -260
-119 -492 -167 -775 -163 -267 4 -500 58 -739 169 -308 144 -612 421 -763 694
-20 37 -44 78 -53 92 -41 62 -148 346 -164 435 -3 17 -8 41 -11 55 -43 218
-39 509 10 725 33 144 98 321 162 445 42 80 139 234 166 262 7 7 25 31 42 53
50 67 205 217 290 280 44 33 82 63 83 68 2 4 8 7 12 7 5 0 29 13 53 30 109 73
398 198 501 215 17 3 48 10 69 16 122 32 432 48 567 29z"/>
</g>
</svg>
